<?xml version="1.0" encoding="UTF-8"?><svg id="price1" xmlns="http://www.w3.org/2000/svg" xmlns:xlink="http://www.w3.org/1999/xlink" viewBox="0 0 186.02 196.47"><defs><style>.cls-1{fill:url(#Degradado_sin_nombre_7);}.cls-2{fill:url(#Degradado_sin_nombre_7-2);}</style><linearGradient id="Degradado_sin_nombre_7" x1="0" y1="50.29" x2="186.02" y2="50.29" gradientUnits="userSpaceOnUse"><stop offset="0" stop-color="#8276b4"/><stop offset=".55" stop-color="#b276af"/><stop offset="1" stop-color="#504394"/></linearGradient><linearGradient id="Degradado_sin_nombre_7-2" x1="20.58" y1="141.62" x2="165.72" y2="141.62" xlink:href="#Degradado_sin_nombre_7"/></defs><path class="cls-1" d="M184.77,25.76c1.91,12.32,1.41,24.86.04,37.21-.48,4.33-6.29,37.6-9.37,37.61-42.77-49.64-122.32-49.54-165,0C.87,77.79-1.57,51.01.9,26.28c55.92-35.22,127.59-34.68,183.87-.51ZM164.77,38.76c-44.83-23.69-98.84-23.62-143.67,0l.84,23.84c5.77-2.53,10.88-6.21,16.64-8.85,33.23-15.24,73.86-15.24,107.33-.61,6.27,2.74,11.83,6.64,18.03,9.46l.84-23.84Z"/><path class="cls-2" d="M71.48,86.9c6.02,11.24,12.27,22.25,20.96,31.7,1.3.34,9.08-9.92,10.3-11.68,4.17-5.99,7.67-12.71,10.68-19.36l1.81-.79c20.21,6.31,39.07,18.36,50.49,36.5-10.75,22.91-28.73,43.54-48.89,58.74-3.58,2.7-19.44,13.9-22.65,14.44-3.27.55-11.3-4.96-14.56-7.02-20.48-12.9-40.54-33.22-53.1-53.9-6.76-11.12-8.97-10.58-.1-20.93,11.64-13.58,27.86-23.09,45.06-27.69ZM61.44,112.71c-.93,0-14.37,9.85-15.03,10.9-1.03,1.64-.41,3.17.28,4.74,1.27,2.87,8.29,11.47,10.73,14.27,9.74,11.24,22.39,22.13,35.17,29.79,5.46.52,31.79-25.06,36.32-30.33,2.93-3.41,13.26-15.17,10.01-18.96-1.14-1.32-13.6-10.41-14.49-10.41-9.15,12.35-18.72,25.38-31.81,33.73-12.53-9.04-22.08-21.38-31.17-33.73Z"/></svg>