<?xml version="1.0" encoding="UTF-8"?>
<svg id="price1" xmlns="http://www.w3.org/2000/svg" version="1.1" xmlns:xlink="http://www.w3.org/1999/xlink" viewBox="0 0 1.01 1.34">
  <!-- Generator: Adobe Illustrator 29.8.2, SVG Export Plug-In . SVG Version: 2.1.1 Build 3)  -->
  <defs>
    <style>
      .st0 {
        fill: url(#Degradado_sin_nombre);
      }
    </style>
    <linearGradient id="Degradado_sin_nombre" data-name="Degradado sin nombre" x1="0" y1="1.22" x2="1" y2="1.22" gradientTransform="translate(0 1.89) scale(1 -1)" gradientUnits="userSpaceOnUse">
      <stop offset="0" stop-color="#8276b4"/>
      <stop offset=".55" stop-color="#b276af"/>
      <stop offset="1" stop-color="#504394"/>
    </linearGradient>
  </defs>
  <path class="st0" d="M.71.21l.07-.04-.03-.09.26.04-.18.19-.02-.07s-.03.02-.04.03c.13.25,0,.55-.28.62v.34c-.03.07-.13.07-.14-.01v-.32C.06.82-.08.5.07.26.19.05.46,0,.66.14c.02.01.06.04.07.07h-.01ZM.1.38h.09c.08,0,.13.08.2.11.1.03.22,0,.27-.11,0-.01.03-.09.03-.1,0-.02-.07-.08-.09-.09C.41.06.13.16.09.39h.01ZM.08.45c0,.23.21.41.43.34.18-.06.28-.27.2-.44-.03.18-.26.27-.4.17-.02-.02-.06-.04-.08-.06-.04-.02-.11-.03-.16,0h0Z"/>
</svg>