<?xml version="1.0" encoding="UTF-8"?><svg id="services1" xmlns="http://www.w3.org/2000/svg" xmlns:xlink="http://www.w3.org/1999/xlink" viewBox="0 0 14 14"><defs><linearGradient id="Degradado_sin_nombre" x1="8.99" y1="10.63" x2="12.27" y2="10.63" gradientUnits="userSpaceOnUse"><stop offset="0" stop-color="#9f78ff"/><stop offset="1" stop-color="#f067ff"/></linearGradient><linearGradient id="Degradado_sin_nombre-2" x1="8.99" y1="11.5" x2="14" y2="11.5" xlink:href="#Degradado_sin_nombre"/><linearGradient id="Degradado_sin_nombre-3" x1="0" y1="6.23" x2="12.46" y2="6.23" xlink:href="#Degradado_sin_nombre"/></defs><path d="M9.41,12.27c1.58,0,2.86-1.28,2.86-2.86,0-.23-.18-.41-.41-.41s-.41.18-.41.41c0,1.13-.91,2.04-2.04,2.04-.23,0-.41.18-.41.41,0,.22.18.41.41.41h0Z" style="fill:url(#Degradado_sin_nombre);"/><path d="M14,9.4c0-.23-.19-.41-.42-.4-.23,0-.41.19-.4.42.04,2.1-1.66,3.81-3.76,3.76-.23,0-.41.18-.42.4,0,.23.18.41.4.42,2.56.05,4.65-2.03,4.6-4.6Z" style="fill:url(#Degradado_sin_nombre-2);"/><path d="M10.27,10.27c.48-.48.48-1.26,0-1.74-.38-.38-.94-.46-1.4-.24l-.6-.6.87-.87c.16-.16.16-.42,0-.58l-1.17-1.17.6-.6.87.87c.16.16.42.16.58,0l2.32-2.32c.16-.16.16-.42,0-.58L10.02.12c-.16-.16-.42-.16-.58,0l-2.32,2.32c-.16.16-.16.42,0,.58l.87.87-.6.6-2.62-2.62c-.16-.16-.42-.16-.58,0l-.88.88-1.36-1.36c-.16-.16-.42-.16-.58,0-.16.16-.16.42,0,.58l1.36,1.36-.86.86c-.16.16-.16.42,0,.58l2.62,2.62-.6.6-.87-.87c-.16-.16-.42-.16-.58,0L.12,9.44c-.16.16-.16.42,0,.58l2.32,2.32c.16.16.42.16.58,0l2.32-2.32c.16-.16.16-.42,0-.58l-.87-.87.6-.6,1.17,1.17c.16.16.42.16.58,0l.87-.87.6.6c-.22.46-.14,1.02.24,1.4.48.48,1.26.48,1.74,0h0ZM9.73,4.47l-.58-.58.58-.58.58.58-.58.58ZM10.89,3.31l-.58-.58.58-.58.58.58-.58.58ZM9.73.99l.58.58-.58.58-.58-.58.58-.58ZM7.99,2.73l.58-.58.58.58-.58.58-.58-.58ZM2.73,7.99l.58.58-.58.58-.58-.58.58-.58ZM1.57,9.15l.58.58-.58.58-.58-.58.58-.58ZM2.73,11.47l-.58-.58.58-.58.58.58-.58.58ZM4.47,9.73l-.58.58-.58-.58.58-.58.58.58ZM4.48,2.74l.58.58-1.74,1.74-.58-.58c.12-.12,1.4-1.4,1.74-1.74ZM6.53,8.27l-2.63-2.63,1.74-1.74,2.63,2.63-1.74,1.74ZM9.11,9.11c.16-.16.42-.16.58,0,.16.16.16.42,0,.58-.16.16-.42.16-.58,0s-.16-.42,0-.58Z" style="fill:url(#Degradado_sin_nombre-3);"/></svg>