<?xml version="1.0" encoding="UTF-8"?>
<svg id="services1" xmlns="http://www.w3.org/2000/svg" xmlns:xlink="http://www.w3.org/1999/xlink" viewBox="0 0 54.29 54.3">
  <defs>
    <style>
      .cls-1 {
        fill: url(#Degradado_sin_nombre-2);
      }

      .cls-2 {
        fill: url(#Degradado_sin_nombre-3);
      }

      .cls-3 {
        fill: url(#Degradado_sin_nombre);
      }
    </style>
    <linearGradient id="Degradado_sin_nombre" data-name="Degradado sin nombre" x1="34.89" y1="41.24" x2="47.59" y2="41.24" gradientUnits="userSpaceOnUse">
      <stop offset="0" stop-color="#9f78ff"/>
      <stop offset="1" stop-color="#f067ff"/>
    </linearGradient>
    <linearGradient id="Degradado_sin_nombre-2" data-name="Degradado sin nombre" x1="34.89" y1="44.59" x2="54.29" y2="44.59" xlink:href="#Degradado_sin_nombre"/>
    <linearGradient id="Degradado_sin_nombre-3" data-name="Degradado sin nombre" x1="0" y1="24.16" x2="48.32" y2="24.16" xlink:href="#Degradado_sin_nombre"/>
  </defs>
  <path class="cls-3" d="M36.48,47.59c6.14-.01,11.09-4.96,11.11-11.11,0-.88-.71-1.59-1.59-1.59s-1.59.71-1.59,1.59c0,4.39-3.54,7.92-7.93,7.93-.88,0-1.59.72-1.59,1.59,0,.87.71,1.59,1.59,1.59h0Z"/>
  <path class="cls-1" d="M54.29,36.45c-.02-.88-.75-1.58-1.62-1.56-.88.02-1.58.74-1.56,1.62.16,8.13-6.46,14.76-14.6,14.6-.88-.02-1.6.68-1.62,1.56-.02.88.68,1.6,1.56,1.62,9.92.2,18.04-7.88,17.84-17.84Z"/>
  <path class="cls-2" d="M39.83,39.83c1.86-1.86,1.86-4.89,0-6.75-1.47-1.47-3.66-1.78-5.43-.93l-2.33-2.33,3.37-3.37c.62-.62.62-1.63,0-2.25l-4.54-4.54,2.32-2.32,3.37,3.37c.62.62,1.63.62,2.25,0l9-9c.62-.62.62-1.63,0-2.25L38.86.47c-.62-.62-1.63-.62-2.25,0l-9,9c-.62.62-.62,1.63,0,2.25l3.37,3.37-2.32,2.32-10.16-10.16c-.62-.62-1.63-.62-2.25,0l-3.43,3.43-5.28-5.28c-.62-.62-1.63-.62-2.25,0-.62.62-.62,1.63,0,2.25l5.28,5.28-3.32,3.32c-.62.62-.62,1.63,0,2.25l10.16,10.16-2.32,2.32-3.37-3.37c-.62-.62-1.63-.62-2.25,0L.47,36.61c-.62.62-.62,1.63,0,2.25l9,9c.62.62,1.63.62,2.25,0l9-9c.62-.62.62-1.63,0-2.25l-3.37-3.37,2.32-2.32,4.54,4.54c.62.62,1.63.62,2.25,0l3.37-3.37,2.33,2.33c-.84,1.77-.53,3.96.93,5.43,1.86,1.86,4.89,1.86,6.75,0h0ZM37.73,17.34l-2.25-2.25,2.25-2.25,2.25,2.25-2.25,2.25ZM42.23,12.84l-2.25-2.25,2.25-2.25,2.25,2.25-2.25,2.25ZM37.73,3.84l2.25,2.25-2.25,2.25-2.25-2.25,2.25-2.25ZM30.98,10.59l2.25-2.25,2.25,2.25-2.25,2.25-2.25-2.25ZM10.59,30.98l2.25,2.25-2.25,2.25-2.25-2.25,2.25-2.25ZM6.09,35.48l2.25,2.25-2.25,2.25-2.25-2.25,2.25-2.25ZM10.59,44.48l-2.25-2.25,2.25-2.25,2.25,2.25-2.25,2.25ZM17.34,37.73l-2.25,2.25-2.25-2.25,2.25-2.25,2.25,2.25ZM17.38,10.63l2.25,2.25-6.75,6.75-2.25-2.25c.48-.48,5.43-5.43,6.75-6.75ZM25.32,32.07l-10.2-10.2,6.75-6.75,10.2,10.2-6.75,6.75ZM35.33,35.33c.62-.62,1.63-.62,2.25,0,.62.62.62,1.63,0,2.25-.62.62-1.63.62-2.25,0s-.62-1.63,0-2.25Z"/>
</svg>