<?xml version="1.0" encoding="UTF-8"?>
<svg id="services3" xmlns="http://www.w3.org/2000/svg" version="1.1" xmlns:xlink="http://www.w3.org/1999/xlink" viewBox="0 0 12.16 12.48">
  <!-- Generator: Adobe Illustrator 29.8.2, SVG Export Plug-In . SVG Version: 2.1.1 Build 3)  -->
  <defs>
    <style>
      .st0 {
        fill: url(#Degradado_sin_nombre5);
      }

      .st1 {
        fill: url(#Degradado_sin_nombre12);
      }

      .st2 {
        fill: url(#Degradado_sin_nombre2);
      }

      .st3 {
        fill: url(#Degradado_sin_nombre14);
      }

      .st4 {
        fill: url(#Degradado_sin_nombre3);
      }

      .st5 {
        fill: url(#Degradado_sin_nombre13);
      }

      .st6 {
        fill: url(#Degradado_sin_nombre15);
      }

      .st7 {
        fill: url(#Degradado_sin_nombre9);
      }

      .st8 {
        fill: url(#Degradado_sin_nombre4);
      }

      .st9 {
        fill: url(#Degradado_sin_nombre10);
      }

      .st10 {
        fill: url(#Degradado_sin_nombre11);
      }

      .st11 {
        fill: url(#Degradado_sin_nombre);
      }

      .st12 {
        fill: url(#Degradado_sin_nombre1);
      }

      .st13 {
        fill: url(#Degradado_sin_nombre8);
      }

      .st14 {
        fill: url(#Degradado_sin_nombre6);
      }

      .st15 {
        fill: url(#Degradado_sin_nombre7);
      }
    </style>
    <linearGradient id="Degradado_sin_nombre" data-name="Degradado sin nombre" x1="0" y1="8.23" x2="12.16" y2="8.23" gradientUnits="userSpaceOnUse">
      <stop offset="0" stop-color="#9f78ff"/>
      <stop offset="1" stop-color="#f067ff"/>
    </linearGradient>
    <linearGradient id="Degradado_sin_nombre1" data-name="Degradado sin nombre" x1="3.2" y1=".75" x2="8.97" y2=".75" xlink:href="#Degradado_sin_nombre"/>
    <linearGradient id="Degradado_sin_nombre2" data-name="Degradado sin nombre" x1="3.85" y1="1.77" x2="8.3" y2="1.77" xlink:href="#Degradado_sin_nombre"/>
    <linearGradient id="Degradado_sin_nombre3" data-name="Degradado sin nombre" x1="4.59" y1="2.81" x2="7.57" y2="2.81" xlink:href="#Degradado_sin_nombre"/>
    <linearGradient id="Degradado_sin_nombre4" data-name="Degradado sin nombre" x1="9.9" y1="5.51" x2="11.32" y2="5.51" xlink:href="#Degradado_sin_nombre"/>
    <linearGradient id="Degradado_sin_nombre5" data-name="Degradado sin nombre" x1=".83" y1="5.51" x2="2.27" y2="5.51" xlink:href="#Degradado_sin_nombre"/>
    <linearGradient id="Degradado_sin_nombre6" data-name="Degradado sin nombre" x1="9.9" y1="10.95" x2="11.32" y2="10.95" xlink:href="#Degradado_sin_nombre"/>
    <linearGradient id="Degradado_sin_nombre7" data-name="Degradado sin nombre" x1=".84" y1="10.95" x2="2.26" y2="10.95" xlink:href="#Degradado_sin_nombre"/>
    <linearGradient id="Degradado_sin_nombre8" data-name="Degradado sin nombre" x1=".83" y1="6.75" x2="2.12" y2="6.75" xlink:href="#Degradado_sin_nombre"/>
    <linearGradient id="Degradado_sin_nombre9" data-name="Degradado sin nombre" x1="10.04" y1="6.75" x2="11.32" y2="6.75" xlink:href="#Degradado_sin_nombre"/>
    <linearGradient id="Degradado_sin_nombre10" data-name="Degradado sin nombre" x1="10.03" y1="9.72" x2="11.33" y2="9.72" xlink:href="#Degradado_sin_nombre"/>
    <linearGradient id="Degradado_sin_nombre11" data-name="Degradado sin nombre" x1=".83" y1="9.72" x2="2.13" y2="9.72" xlink:href="#Degradado_sin_nombre"/>
    <linearGradient id="Degradado_sin_nombre12" data-name="Degradado sin nombre" x1="10.03" y1="8.23" x2="11.32" y2="8.23" xlink:href="#Degradado_sin_nombre"/>
    <linearGradient id="Degradado_sin_nombre13" data-name="Degradado sin nombre" x1=".84" y1="8.23" x2="2.12" y2="8.23" xlink:href="#Degradado_sin_nombre"/>
    <linearGradient id="Degradado_sin_nombre14" data-name="Degradado sin nombre" x1="3.73" y1="8.23" x2="5.57" y2="8.23" xlink:href="#Degradado_sin_nombre"/>
    <linearGradient id="Degradado_sin_nombre15" data-name="Degradado sin nombre" x1="6.56" y1="8.23" x2="8.46" y2="8.23" xlink:href="#Degradado_sin_nombre"/>
  </defs>
  <path class="st11" d="M1.19,3.99h9.71c.65.04,1.18.53,1.25,1.18v6.13c-.08.65-.6,1.14-1.25,1.19H1.23C.6,12.42.09,11.95,0,11.32v-6.17c.1-.61.57-1.09,1.19-1.16ZM1.26,4.47c-.4.05-.72.34-.78.74v6.03c.05.41.38.71.79.75h9.6c.42-.04.75-.35.79-.77v-5.99c-.05-.45-.42-.76-.86-.77H1.26Z"/>
  <path class="st12" d="M5.82,0c1-.06,2.07.26,2.85.89.15.12.44.34.22.54s-.45-.12-.62-.24c-1.27-.91-2.91-.98-4.23-.11-.13.08-.42.36-.51.39-.19.08-.36-.05-.34-.25,0-.12.2-.26.29-.33C4.13.38,5,.06,5.82,0Z"/>
  <path class="st2" d="M5.77,1.14c.85-.07,1.84.21,2.43.85.25.26-.03.57-.31.38-.15-.1-.29-.27-.47-.38-.89-.55-2.03-.5-2.87.12-.1.07-.23.23-.32.28-.28.15-.51-.15-.28-.4.42-.45,1.21-.8,1.83-.85Z"/>
  <path class="st4" d="M7.17,3.26s-.08-.11-.13-.15c-.62-.51-1.34-.47-1.95.03-.11.09-.19.27-.39.14-.35-.22.2-.62.39-.73.71-.43,1.92-.34,2.42.37.2.28-.14.52-.34.35Z"/>
  <path class="st8" d="M10.49,4.8c.96-.14,1.11,1.28.29,1.42-1.06.18-1.18-1.29-.29-1.42ZM10.59,5.28c-.3.02-.28.52.09.45.26-.05.21-.48-.09-.45Z"/>
  <path class="st0" d="M1.44,4.8c.73-.11,1.13.84.53,1.29-.44.33-1.07.05-1.14-.49-.05-.37.24-.75.61-.81ZM1.54,5.28c-.31.03-.29.51.06.45.28-.05.21-.48-.06-.45Z"/>
  <path class="st14" d="M10.59,10.23c.94-.02.99,1.4.06,1.45-.98.05-1-1.42-.06-1.45ZM10.77,10.78c-.21-.21-.52.11-.34.33.2.23.57-.09.34-.33Z"/>
  <path class="st15" d="M1.54,10.23c.93-.03,1,1.43.02,1.45s-.96-1.42-.02-1.45ZM1.47,10.74c-.15.04-.21.28-.06.4.4.3.54-.54.06-.4Z"/>
  <path class="st13" d="M1.03,6.5c.11-.02.83-.02.92,0,.24.07.22.45-.06.49-.14.02-.74.02-.87,0-.26-.05-.26-.44,0-.5Z"/>
  <path class="st7" d="M10.24,6.5c.13-.02.76-.03.89,0,.27.05.26.46-.02.5-.13.02-.77.02-.89,0-.25-.06-.25-.44.02-.49Z"/>
  <path class="st9" d="M11.25,9.54c.14.14.07.39-.12.42-.15.03-.72.02-.87,0-.25-.04-.31-.36-.1-.46.12-.06.72-.06.88-.04.07,0,.16.03.21.08Z"/>
  <path class="st10" d="M1.08,9.47c.15-.02.78-.03.9.03.23.1.18.43-.08.47-.13.02-.77.02-.89,0-.25-.07-.25-.44.06-.49Z"/>
  <path class="st1" d="M10.19,8c.1-.02.86-.02.96,0,.24.05.22.44-.02.48-.11.02-.84.02-.94,0-.21-.05-.21-.43,0-.47Z"/>
  <path class="st5" d="M1.01,8c.1-.02.86-.02.96,0,.21.05.22.44-.02.48-.12.02-.83.02-.94,0-.22-.05-.23-.42,0-.47Z"/>
  <path class="st3" d="M4.51,7.31c1.27-.17,1.45,1.73.27,1.86-1.26.14-1.43-1.7-.27-1.86ZM4.6,7.79c-.67.07-.39,1.15.25.85.44-.21.24-.9-.25-.85Z"/>
  <path class="st6" d="M8.17,8.9c-.82.82-2.12-.35-1.39-1.26.81-1.01,2.31.34,1.39,1.26ZM7.82,8.56c.38-.37-.12-1.02-.58-.68-.5.37.12,1.12.58.68Z"/>
</svg>