{
	"asset":{
		"generator":"Khronos glTF Blender I/O v4.5.48",
		"version":"2.0"
	},
	"extensionsUsed":[
		"KHR_materials_specular"
	],
	"scene":0,
	"scenes":[
		{
			"name":"Scene",
			"nodes":[
				12,
				13
			]
		}
	],
	"nodes":[
		{
			"mesh":0,
			"name":"antenna_rfa_conceptual.obj",
			"scale":[
				10,
				10,
				10
			]
		},
		{
			"mesh":1,
			"name":"antenna_spot_conceptual.obj",
			"scale":[
				10,
				10,
				10
			]
		},
		{
			"mesh":2,
			"name":"Body2",
			"scale":[
				10,
				10,
				10
			]
		},
		{
			"mesh":3,
			"name":"Body3",
			"scale":[
				10,
				10,
				10
			]
		},
		{
			"mesh":4,
			"name":"Body4",
			"scale":[
				10,
				10,
				10
			]
		},
		{
			"mesh":5,
			"name":"Body5",
			"scale":[
				10,
				10,
				10
			]
		},
		{
			"mesh":6,
			"name":"camera_lens",
			"scale":[
				10,
				10,
				10
			]
		},
		{
			"mesh":7,
			"name":"turbina_hidraulica_conceptual_620mm.obj",
			"scale":[
				10,
				10,
				10
			]
		},
		{
			"mesh":8,
			"name":"turbina_hidraulica_conceptual_620mm.obj (1)",
			"scale":[
				10,
				10,
				10
			]
		},
		{
			"mesh":9,
			"name":"turbina_hidraulica_conceptual_620mm.obj (1) (1)",
			"scale":[
				10,
				10,
				10
			]
		},
		{
			"mesh":10,
			"name":"ventosas_goma_v2.obj",
			"scale":[
				10,
				10,
				10
			]
		},
		{
			"mesh":11,
			"name":"ventosas_goma_v2.obj (1)",
			"scale":[
				10,
				10,
				10
			]
		},
		{
			"children":[
				0,
				1,
				2,
				3,
				4,
				5,
				6,
				7,
				8,
				9,
				10,
				11
			],
			"name":"PrototipoMarcajeV1 v1",
			"rotation":[
				0.7071068286895752,
				0,
				0,
				0.7071068286895752
			],
			"scale":[
				0.0010000000474974513,
				0.0010000000474974513,
				0.0010000000474974513
			]
		},
		{
			"mesh":12,
			"name":"Cube"
		}
	],
	"materials":[
		{
			"doubleSided":true,
			"extensions":{
				"KHR_materials_specular":{
					"specularColorFactor":[
						2.0,
						2.0,
						2.0
					]
				}
			},
			"name":"ABS (White)",
			"pbrMetallicRoughness":{
				"baseColorFactor":[
					0.9647058844566345,
					0.9647058844566345,
					0.9529411792755127,
					1
				],
				"roughnessFactor":0.5527864098548889
			}
		},
		{
			"doubleSided":true,
			"extensions":{
				"KHR_materials_specular":{
					"specularColorFactor":[
						2.0,
						2.0,
						2.0
					]
				}
			},
			"name":"Glass - Frosted Light",
			"pbrMetallicRoughness":{
				"baseColorFactor":[
					0.9647058844566345,
					0.9647058844566345,
					0.9529411792755127,
					1
				],
				"roughnessFactor":0.5527864098548889
			}
		},
		{
			"doubleSided":true,
			"extensions":{
				"KHR_materials_specular":{
					"specularColorFactor":[
						2.0,
						2.0,
						2.0
					]
				}
			},
			"name":"PA 12 - PA 2200 - 120\u00b5m - Balance (with EOS 3D printers)",
			"pbrMetallicRoughness":{
				"baseColorFactor":[
					0.9647058844566345,
					0.9647058844566345,
					0.9529411792755127,
					1
				],
				"roughnessFactor":0.5527864098548889
			}
		},
		{
			"doubleSided":true,
			"extensions":{
				"KHR_materials_specular":{
					"specularColorFactor":[
						2.0,
						2.0,
						2.0
					]
				}
			},
			"name":"PA 11 - Nylon- HP 11-30 (with EOS P 396 3D Printer)",
			"pbrMetallicRoughness":{
				"baseColorFactor":[
					0.24705882370471954,
					0.24705882370471954,
					0.24705882370471954,
					1
				],
				"roughnessFactor":0.5527864098548889
			}
		},
		{
			"doubleSided":true,
			"name":"Material",
			"pbrMetallicRoughness":{
				"baseColorFactor":[
					0.800000011920929,
					0.800000011920929,
					0.800000011920929,
					1
				],
				"metallicFactor":0,
				"roughnessFactor":0.5
			}
		}
	],
	"meshes":[
		{
			"name":"antenna_rfa_conceptual.obj",
			"primitives":[
				{
					"attributes":{
						"POSITION":0,
						"NORMAL":1,
						"TEXCOORD_0":2
					},
					"indices":3,
					"material":0
				}
			]
		},
		{
			"name":"antenna_spot_conceptual.obj",
			"primitives":[
				{
					"attributes":{
						"POSITION":4,
						"NORMAL":5,
						"TEXCOORD_0":6
					},
					"indices":3,
					"material":0
				}
			]
		},
		{
			"name":"Body2",
			"primitives":[
				{
					"attributes":{
						"POSITION":7,
						"NORMAL":8,
						"TEXCOORD_0":9
					},
					"indices":10,
					"material":1
				}
			]
		},
		{
			"name":"Body3",
			"primitives":[
				{
					"attributes":{
						"POSITION":11,
						"NORMAL":12,
						"TEXCOORD_0":13
					},
					"indices":14,
					"material":2
				}
			]
		},
		{
			"name":"Body4",
			"primitives":[
				{
					"attributes":{
						"POSITION":15,
						"NORMAL":16,
						"TEXCOORD_0":17
					},
					"indices":18,
					"material":3
				}
			]
		},
		{
			"name":"Body5",
			"primitives":[
				{
					"attributes":{
						"POSITION":19,
						"NORMAL":20,
						"TEXCOORD_0":21
					},
					"indices":22,
					"material":3
				}
			]
		},
		{
			"name":"camera_lens",
			"primitives":[
				{
					"attributes":{
						"POSITION":23,
						"NORMAL":24,
						"TEXCOORD_0":25
					},
					"indices":26,
					"material":1
				}
			]
		},
		{
			"name":"turbina_hidraulica_conceptual_620mm.obj",
			"primitives":[
				{
					"attributes":{
						"POSITION":27,
						"NORMAL":28,
						"TEXCOORD_0":29
					},
					"indices":30,
					"material":0
				}
			]
		},
		{
			"name":"turbina_hidraulica_conceptual_620mm.obj (1)",
			"primitives":[
				{
					"attributes":{
						"POSITION":31,
						"NORMAL":32,
						"TEXCOORD_0":33
					},
					"indices":34,
					"material":0
				}
			]
		},
		{
			"name":"turbina_hidraulica_conceptual_620mm.obj (1) (1)",
			"primitives":[
				{
					"attributes":{
						"POSITION":35,
						"NORMAL":36,
						"TEXCOORD_0":37
					},
					"indices":34,
					"material":0
				}
			]
		},
		{
			"name":"ventosas_goma_v2.obj",
			"primitives":[
				{
					"attributes":{
						"POSITION":38,
						"NORMAL":39,
						"TEXCOORD_0":40
					},
					"indices":41,
					"material":0
				}
			]
		},
		{
			"name":"ventosas_goma_v2.obj (1)",
			"primitives":[
				{
					"attributes":{
						"POSITION":42,
						"NORMAL":43,
						"TEXCOORD_0":44
					},
					"indices":41,
					"material":0
				}
			]
		},
		{
			"name":"Cube",
			"primitives":[
				{
					"attributes":{
						"POSITION":45,
						"NORMAL":46,
						"TEXCOORD_0":47
					},
					"indices":48,
					"material":4
				}
			]
		}
	],
	"accessors":[
		{
			"bufferView":0,
			"componentType":5126,
			"count":130,
			"max":[
				3.6500000953674316,
				1.149999976158142,
				21.5
			],
			"min":[
				3.3499999046325684,
				0.8500000238418579,
				-3.500000238418579
			],
			"type":"VEC3"
		},
		{
			"bufferView":1,
			"componentType":5126,
			"count":130,
			"type":"VEC3"
		},
		{
			"bufferView":2,
			"componentType":5126,
			"count":130,
			"type":"VEC2"
		},
		{
			"bufferView":3,
			"componentType":5123,
			"count":384,
			"type":"SCALAR"
		},
		{
			"bufferView":4,
			"componentType":5126,
			"count":130,
			"max":[
				3.9000000953674316,
				2.3885841369628906,
				11.738533020019531
			],
			"min":[
				3.0999999046325684,
				1.588584065437317,
				-0.261467307806015
			],
			"type":"VEC3"
		},
		{
			"bufferView":5,
			"componentType":5126,
			"count":130,
			"type":"VEC3"
		},
		{
			"bufferView":6,
			"componentType":5126,
			"count":130,
			"type":"VEC2"
		},
		{
			"bufferView":7,
			"componentType":5126,
			"count":1363,
			"max":[
				7,
				3.0999999046325684,
				5.551115123125783e-17
			],
			"min":[
				-2.3314683517128287e-15,
				-4.440892098500626e-16,
				-21.17827606201172
			],
			"type":"VEC3"
		},
		{
			"bufferView":8,
			"componentType":5126,
			"count":1363,
			"type":"VEC3"
		},
		{
			"bufferView":9,
			"componentType":5126,
			"count":1363,
			"type":"VEC2"
		},
		{
			"bufferView":10,
			"componentType":5123,
			"count":5808,
			"type":"SCALAR"
		},
		{
			"bufferView":11,
			"componentType":5126,
			"count":820,
			"max":[
				6,
				5,
				-1
			],
			"min":[
				1,
				3,
				-18
			],
			"type":"VEC3"
		},
		{
			"bufferView":12,
			"componentType":5126,
			"count":820,
			"type":"VEC3"
		},
		{
			"bufferView":13,
			"componentType":5126,
			"count":820,
			"type":"VEC2"
		},
		{
			"bufferView":14,
			"componentType":5123,
			"count":3252,
			"type":"SCALAR"
		},
		{
			"bufferView":15,
			"componentType":5126,
			"count":2078,
			"max":[
				2.25,
				1.75,
				-19.750028610229492
			],
			"min":[
				1.75,
				1.25,
				-20.249971389770508
			],
			"type":"VEC3"
		},
		{
			"bufferView":16,
			"componentType":5126,
			"count":2078,
			"type":"VEC3"
		},
		{
			"bufferView":17,
			"componentType":5126,
			"count":2078,
			"type":"VEC2"
		},
		{
			"bufferView":18,
			"componentType":5123,
			"count":11532,
			"type":"SCALAR"
		},
		{
			"bufferView":19,
			"componentType":5126,
			"count":2078,
			"max":[
				5.25,
				1.75,
				-19.750028610229492
			],
			"min":[
				4.75,
				1.25,
				-20.249971389770508
			],
			"type":"VEC3"
		},
		{
			"bufferView":20,
			"componentType":5126,
			"count":2078,
			"type":"VEC3"
		},
		{
			"bufferView":21,
			"componentType":5126,
			"count":2078,
			"type":"VEC2"
		},
		{
			"bufferView":22,
			"componentType":5123,
			"count":11532,
			"type":"SCALAR"
		},
		{
			"bufferView":23,
			"componentType":5126,
			"count":516,
			"max":[
				4.447093963623047,
				2.445483922958374,
				-17.783700942993164
			],
			"min":[
				2.552906036376953,
				0.5545162558555603,
				-20.216299057006836
			],
			"type":"VEC3"
		},
		{
			"bufferView":24,
			"componentType":5126,
			"count":516,
			"type":"VEC3"
		},
		{
			"bufferView":25,
			"componentType":5126,
			"count":516,
			"type":"VEC2"
		},
		{
			"bufferView":26,
			"componentType":5123,
			"count":1536,
			"type":"SCALAR"
		},
		{
			"bufferView":27,
			"componentType":5126,
			"count":7908,
			"max":[
				4.330232620239258,
				4.7973833084106445,
				-16.353187561035156
			],
			"min":[
				2.6697676181793213,
				3.1854054927825928,
				-16.540437698364258
			],
			"type":"VEC3"
		},
		{
			"bufferView":28,
			"componentType":5126,
			"count":7908,
			"type":"VEC3"
		},
		{
			"bufferView":29,
			"componentType":5126,
			"count":7908,
			"type":"VEC2"
		},
		{
			"bufferView":30,
			"componentType":5123,
			"count":36024,
			"type":"SCALAR"
		},
		{
			"bufferView":31,
			"componentType":5126,
			"count":7907,
			"max":[
				4.330232620239258,
				4.7973833084106445,
				-9.353187561035156
			],
			"min":[
				2.6697676181793213,
				3.1854054927825928,
				-9.540437698364258
			],
			"type":"VEC3"
		},
		{
			"bufferView":32,
			"componentType":5126,
			"count":7907,
			"type":"VEC3"
		},
		{
			"bufferView":33,
			"componentType":5126,
			"count":7907,
			"type":"VEC2"
		},
		{
			"bufferView":34,
			"componentType":5123,
			"count":36024,
			"type":"SCALAR"
		},
		{
			"bufferView":35,
			"componentType":5126,
			"count":7907,
			"max":[
				4.257255554199219,
				4.820644378662109,
				-2.353187322616577
			],
			"min":[
				2.7427446842193604,
				3.162144422531128,
				-2.5404374599456787
			],
			"type":"VEC3"
		},
		{
			"bufferView":36,
			"componentType":5126,
			"count":7907,
			"type":"VEC3"
		},
		{
			"bufferView":37,
			"componentType":5126,
			"count":7907,
			"type":"VEC2"
		},
		{
			"bufferView":38,
			"componentType":5126,
			"count":5640,
			"max":[
				6.442500114440918,
				0.0780000239610672,
				-2.857499837875366
			],
			"min":[
				0.45750004053115845,
				-0.6779999732971191,
				-8.842499732971191
			],
			"type":"VEC3"
		},
		{
			"bufferView":39,
			"componentType":5126,
			"count":5640,
			"type":"VEC3"
		},
		{
			"bufferView":40,
			"componentType":5126,
			"count":5640,
			"type":"VEC2"
		},
		{
			"bufferView":41,
			"componentType":5123,
			"count":24576,
			"type":"SCALAR"
		},
		{
			"bufferView":42,
			"componentType":5126,
			"count":5640,
			"max":[
				6.442500114440918,
				0.0780000239610672,
				-10.857500076293945
			],
			"min":[
				0.45750004053115845,
				-0.6779999732971191,
				-16.842500686645508
			],
			"type":"VEC3"
		},
		{
			"bufferView":43,
			"componentType":5126,
			"count":5640,
			"type":"VEC3"
		},
		{
			"bufferView":44,
			"componentType":5126,
			"count":5640,
			"type":"VEC2"
		},
		{
			"bufferView":45,
			"componentType":5126,
			"count":24,
			"max":[
				1,
				1,
				1
			],
			"min":[
				-1,
				-1,
				-1
			],
			"type":"VEC3"
		},
		{
			"bufferView":46,
			"componentType":5126,
			"count":24,
			"type":"VEC3"
		},
		{
			"bufferView":47,
			"componentType":5126,
			"count":24,
			"type":"VEC2"
		},
		{
			"bufferView":48,
			"componentType":5123,
			"count":36,
			"type":"SCALAR"
		}
	],
	"bufferViews":[
		{
			"buffer":0,
			"byteLength":1560,
			"byteOffset":0,
			"target":34962
		},
		{
			"buffer":0,
			"byteLength":1560,
			"byteOffset":1560,
			"target":34962
		},
		{
			"buffer":0,
			"byteLength":1040,
			"byteOffset":3120,
			"target":34962
		},
		{
			"buffer":0,
			"byteLength":768,
			"byteOffset":4160,
			"target":34963
		},
		{
			"buffer":0,
			"byteLength":1560,
			"byteOffset":4928,
			"target":34962
		},
		{
			"buffer":0,
			"byteLength":1560,
			"byteOffset":6488,
			"target":34962
		},
		{
			"buffer":0,
			"byteLength":1040,
			"byteOffset":8048,
			"target":34962
		},
		{
			"buffer":0,
			"byteLength":16356,
			"byteOffset":9088,
			"target":34962
		},
		{
			"buffer":0,
			"byteLength":16356,
			"byteOffset":25444,
			"target":34962
		},
		{
			"buffer":0,
			"byteLength":10904,
			"byteOffset":41800,
			"target":34962
		},
		{
			"buffer":0,
			"byteLength":11616,
			"byteOffset":52704,
			"target":34963
		},
		{
			"buffer":0,
			"byteLength":9840,
			"byteOffset":64320,
			"target":34962
		},
		{
			"buffer":0,
			"byteLength":9840,
			"byteOffset":74160,
			"target":34962
		},
		{
			"buffer":0,
			"byteLength":6560,
			"byteOffset":84000,
			"target":34962
		},
		{
			"buffer":0,
			"byteLength":6504,
			"byteOffset":90560,
			"target":34963
		},
		{
			"buffer":0,
			"byteLength":24936,
			"byteOffset":97064,
			"target":34962
		},
		{
			"buffer":0,
			"byteLength":24936,
			"byteOffset":122000,
			"target":34962
		},
		{
			"buffer":0,
			"byteLength":16624,
			"byteOffset":146936,
			"target":34962
		},
		{
			"buffer":0,
			"byteLength":23064,
			"byteOffset":163560,
			"target":34963
		},
		{
			"buffer":0,
			"byteLength":24936,
			"byteOffset":186624,
			"target":34962
		},
		{
			"buffer":0,
			"byteLength":24936,
			"byteOffset":211560,
			"target":34962
		},
		{
			"buffer":0,
			"byteLength":16624,
			"byteOffset":236496,
			"target":34962
		},
		{
			"buffer":0,
			"byteLength":23064,
			"byteOffset":253120,
			"target":34963
		},
		{
			"buffer":0,
			"byteLength":6192,
			"byteOffset":276184,
			"target":34962
		},
		{
			"buffer":0,
			"byteLength":6192,
			"byteOffset":282376,
			"target":34962
		},
		{
			"buffer":0,
			"byteLength":4128,
			"byteOffset":288568,
			"target":34962
		},
		{
			"buffer":0,
			"byteLength":3072,
			"byteOffset":292696,
			"target":34963
		},
		{
			"buffer":0,
			"byteLength":94896,
			"byteOffset":295768,
			"target":34962
		},
		{
			"buffer":0,
			"byteLength":94896,
			"byteOffset":390664,
			"target":34962
		},
		{
			"buffer":0,
			"byteLength":63264,
			"byteOffset":485560,
			"target":34962
		},
		{
			"buffer":0,
			"byteLength":72048,
			"byteOffset":548824,
			"target":34963
		},
		{
			"buffer":0,
			"byteLength":94884,
			"byteOffset":620872,
			"target":34962
		},
		{
			"buffer":0,
			"byteLength":94884,
			"byteOffset":715756,
			"target":34962
		},
		{
			"buffer":0,
			"byteLength":63256,
			"byteOffset":810640,
			"target":34962
		},
		{
			"buffer":0,
			"byteLength":72048,
			"byteOffset":873896,
			"target":34963
		},
		{
			"buffer":0,
			"byteLength":94884,
			"byteOffset":945944,
			"target":34962
		},
		{
			"buffer":0,
			"byteLength":94884,
			"byteOffset":1040828,
			"target":34962
		},
		{
			"buffer":0,
			"byteLength":63256,
			"byteOffset":1135712,
			"target":34962
		},
		{
			"buffer":0,
			"byteLength":67680,
			"byteOffset":1198968,
			"target":34962
		},
		{
			"buffer":0,
			"byteLength":67680,
			"byteOffset":1266648,
			"target":34962
		},
		{
			"buffer":0,
			"byteLength":45120,
			"byteOffset":1334328,
			"target":34962
		},
		{
			"buffer":0,
			"byteLength":49152,
			"byteOffset":1379448,
			"target":34963
		},
		{
			"buffer":0,
			"byteLength":67680,
			"byteOffset":1428600,
			"target":34962
		},
		{
			"buffer":0,
			"byteLength":67680,
			"byteOffset":1496280,
			"target":34962
		},
		{
			"buffer":0,
			"byteLength":45120,
			"byteOffset":1563960,
			"target":34962
		},
		{
			"buffer":0,
			"byteLength":288,
			"byteOffset":1609080,
			"target":34962
		},
		{
			"buffer":0,
			"byteLength":288,
			"byteOffset":1609368,
			"target":34962
		},
		{
			"buffer":0,
			"byteLength":192,
			"byteOffset":1609656,
			"target":34962
		},
		{
			"buffer":0,
			"byteLength":72,
			"byteOffset":1609848,
			"target":34963
		}
	],
	"buffers":[
		{
			"byteLength":1609920,
			"uri":"PrototipoMarcajeV1.bin"
		}
	]
}
